<?xml version="1.0" encoding="UTF-8"?>
<svg width="100" height="100" viewBox="0 0 100 100" fill="none" xmlns="http://www.w3.org/2000/svg">
  <!-- AI Personalization Icon -->
  <circle cx="50" cy="50" r="45" stroke="#4C84FF" stroke-width="2" fill="#EBF2FF"/>
  <!-- Robot Head -->
  <rect x="35" y="25" width="30" height="25" rx="5" fill="#4C84FF" opacity="0.8"/>
  <!-- Antenna -->
  <line x1="50" y1="25" x2="50" y2="15" stroke="#4C84FF" stroke-width="2"/>
  <circle cx="50" cy="12" r="3" fill="#4C84FF"/>
  <!-- Robot Eyes -->
  <circle cx="43" cy="35" r="3" fill="#EBF2FF"/>
  <circle cx="57" cy="35" r="3" fill="#EBF2FF"/>
  <!-- Robot Body -->
  <rect x="40" y="50" width="20" height="25" rx="3" fill="#4C84FF" opacity="0.6"/>
  <!-- Settings Gear -->
  <circle cx="70" cy="65" r="10" stroke="#4C84FF" stroke-width="2" fill="#EBF2FF"/>
  <path d="M70 55 L70 57 M70 73 L70 75 M60 65 L62 65 M78 65 L80 65 M62 57 L64 59 M76 71 L78 73 M62 73 L64 71 M76 59 L78 57" stroke="#4C84FF" stroke-width="2"/>
  <text x="50" y="85" font-family="Arial" font-size="8" fill="#4C84FF" text-anchor="middle">AI Personalization</text>
</svg> 