<?xml version="1.0" encoding="UTF-8"?>
<svg width="100" height="100" viewBox="0 0 100 100" fill="none" xmlns="http://www.w3.org/2000/svg">
  <!-- Communication Preferences Icon -->
  <circle cx="50" cy="50" r="45" stroke="#4C84FF" stroke-width="2" fill="#EBF2FF"/>
  <!-- Chat Bubbles -->
  <path d="M25 30H55C57.2 30 59 31.8 59 34V50C59 52.2 57.2 54 55 54H45L35 64V54H25C22.8 54 21 52.2 21 50V34C21 31.8 22.8 30 25 30Z" fill="#4C84FF" opacity="0.8"/>
  <path d="M75 45H45C42.8 45 41 46.8 41 49V65C41 67.2 42.8 69 45 69H55L65 79V69H75C77.2 69 79 67.2 79 65V49C79 46.8 77.2 45 75 45Z" fill="#4C84FF" opacity="0.6"/>
  <!-- Communication Icons -->
  <circle cx="30" cy="42" r="3" fill="#EBF2FF"/>
  <circle cx="40" cy="42" r="3" fill="#EBF2FF"/>
  <circle cx="50" cy="42" r="3" fill="#EBF2FF"/>
  <circle cx="50" cy="57" r="3" fill="#EBF2FF"/>
  <circle cx="60" cy="57" r="3" fill="#EBF2FF"/>
  <circle cx="70" cy="57" r="3" fill="#EBF2FF"/>
  <text x="50" y="90" font-family="Arial" font-size="8" fill="#4C84FF" text-anchor="middle">Communication Preferences</text>
</svg> 